<?xml version="1.0" encoding="utf-8"?>
<!DOCTYPE svg PUBLIC "-//W3C//DTD SVG 1.1//EN" "http://www.w3.org/Graphics/SVG/1.1/DTD/svg11.dtd">
<svg version="1.1" id="Capa_1" xmlns="http://www.w3.org/2000/svg" xmlns:xlink="http://www.w3.org/1999/xlink" x="0px" y="0px"
width="720px" height="1411px" viewBox="0 0 720 1411" enable-background="new 0 0 720 1411" xml:space="preserve">
<defs></defs><path layer="3" fill="#FFFFFF" fill-opacity="0.0" stroke="#000000" stroke-width="12" stroke-opacity="1.0" stroke-miterlimit="10" d="M241.52448,570.3904C248.14441,553.39166,254.76434,536.39294,257.97876,541.0884C261.19318,545.7838,261.00208,572.17365,260.33688,596.67633C259.6717,621.179,258.5325,643.79456,261.58203,645.09216C264.63156,646.3898,271.8699,626.3695,283.20755,611.983C314.82397,571.8643,344.9351,595.749,374.62003,628.38104C389.79837,645.0663,403.14374,662.63434,418.89154,674.5481C434.63934,686.46185,452.78967,692.72144,471.0814,693.0535C489.3731,693.3856,507.80624,687.79016,526.2394,682.1947"/>
<path layer="2" fill="#FFFFFF" fill-opacity="0.0" stroke="#000000" stroke-width="12" stroke-opacity="1.0" stroke-miterlimit="10" d="M214.56097,476.53546C265.86612,425.8632,289.1229,441.16797,366.33002,472.95898C458.20886,510.7913,511.5032,487.2072,524.9906,462.8734C531.4007,451.30838,527.34283,437.95557,519.30164,438.63672C508.93167,439.51514,493.77505,458.71564,454.50473,520.0745C443.6432,537.0454,432.84274,553.80963,422.54596,570.66016C412.24918,587.5107,402.456,604.44763,393.38757,621.64C384.31915,638.8324,375.97546,656.2803,366.71777,673.9025C331.53012,740.8831,307.83948,765.85925,299.33093,774.4705C261.60934,812.6474,228.6353,807.1252,223.9618,788.5361C219.18689,769.5436,245.76196,731.4406,291.5122,748.8728C308.76443,755.4464,325.02316,769.0193,342.0948,780.3262C421.74554,833.0805,475.89627,812.8715,515.2225,794.4528C534.31946,785.5086,552.8894,775.0812,571.4594,764.65375"/>
<path layer="1" fill="#FFFFFF" fill-opacity="0.0" stroke="#000000" stroke-width="12" stroke-opacity="1.0" stroke-miterlimit="10" d="M387.46173,320.65515C554.70447,320.65515,691.53937,457.59235,691.53937,624.9601C691.53937,792.3278,554.7044,929.2651,387.4617,929.26514C220.21898,929.2652,83.38397,792.32806,83.383896,624.9603C83.38382,457.5926,220.2187,320.65533,387.46173,320.65515"/>
</svg>